<?xml version="1.0" encoding="utf-8"?>
<!-- Generator: Adobe Illustrator 27.0.0, SVG Export Plug-In . SVG Version: 6.00 Build 0)  -->
<svg version="1.1" id="Layer_1" xmlns="http://www.w3.org/2000/svg" xmlns:xlink="http://www.w3.org/1999/xlink" x="0px" y="0px"
	 viewBox="0 0 243.7 53.3" style="enable-background:new 0 0 243.7 53.3;" xml:space="preserve">
<style type="text/css">
	.st0{fill:none;stroke:#000000;stroke-width:4;stroke-linecap:round;stroke-linejoin:round;stroke-miterlimit:10;}
</style>
<image style="display:none;overflow:visible;" width="321" height="78" xlink:href="../../../../../Downloads/logo.png"  transform="matrix(0.75 0 0 0.75 -558.1922 22.4379)">
</image>
<g>
	<path class="st0" d="M26.3,50c-2,0.8-4.3,1.3-6.6,1.3C9.9,51.3,2,43.4,2,33.6s7.9-17.7,17.7-17.7s17.7,7.9,17.7,17.7
		c0,4,0,17.7,0,17.7"/>
	<path class="st0" d="M80.8,44.9c-3.2,3.9-8.2,6.4-13.7,6.4c-9.8,0-17.7-7.9-17.7-17.7s7.9-17.7,17.7-17.7c5.4,0,10.2,2.4,13.4,6.2"
		/>
	<path class="st0" d="M120.2,44.9c-3.2,3.9-8.2,6.4-13.7,6.4c-9.8,0-17.7-7.9-17.7-17.7s7.9-17.7,17.7-17.7c5.4,0,10.2,2.4,13.4,6.2
		"/>
	<path class="st0" d="M175.6,51.3c0,0,0-7.9,0-17.7s7.9-17.7,17.7-17.7s17.7,7.9,17.7,17.7c0,8.5,0,17.7,0,17.7"/>
	<path class="st0" d="M138.2,29.4l25.9,0c-1.9-7.8-8.9-13.5-17.2-13.5c-9.8,0-17.7,7.9-17.7,17.7s7.9,17.7,17.7,17.7
		c5.5,0,10.4-2.5,13.7-6.4"/>
	<path class="st0" d="M241.7,51.3c-9.8,0-17.7-7.9-17.7-17.7s0-31.6,0-31.6"/>
	<line class="st0" x1="223.9" y1="16.5" x2="232" y2="16.5"/>
</g>
</svg>
